<svg xmlns="http://www.w3.org/2000/svg" width="25" height="25" viewBox="0 0 1240 1240"><path d="M426.44 950h41.553V720H426.44Zm148.467 0q12.578 0 24.932-5.84t22.685-15.722q9.883-9.883 15.498-22.461 5.84-12.354 5.84-24.932v-92.09q0-12.578-5.84-24.932t-15.498-22.685q-10.107-9.883-22.685-15.498-12.354-5.84-24.932-5.84t-25.156 5.84q-12.354 5.84-22.236 15.498-10.108 10.107-15.948 22.685-5.84 12.354-5.615 24.932v92.09q0 12.578 5.615 24.932 5.84 12.353 15.948 22.46 9.882 10.108 22.236 15.723 12.578 5.84 25.156 5.84m0-41.328q-5.166 0-9.883-2.47-5.166-2.247-8.984-6.29-4.043-3.818-6.514-8.984-2.246-4.942-2.246-9.883v-92.09q0-5.166 2.246-10.107 2.246-4.942 6.514-8.985 3.818-3.818 8.984-6.064 4.942-2.246 9.883-2.47 5.166 0 10.108 2.47 4.941 2.246 8.984 6.064 3.818 4.043 6.064 8.985 2.247 5.166 2.471 10.107v92.09q0 5.166-2.47 9.883-2.247 5.166-6.065 8.984-4.043 4.043-8.984 6.29-4.942 2.47-10.108 2.47M742.69 950q12.579 0 24.932-5.84 12.354-5.84 22.686-15.722 9.882-9.883 15.498-22.461 5.84-12.354 5.84-24.932v-92.09q0-12.578-5.84-24.932t-15.498-22.685q-10.108-9.883-22.686-15.498Q755.27 720 742.69 720t-25.156 5.84q-12.353 5.84-22.236 15.498-10.108 10.107-15.947 22.685-5.84 12.354-5.616 24.932v92.09q0 12.578 5.616 24.932 5.84 12.353 15.947 22.46 9.883 10.108 22.236 15.723Q730.112 950 742.69 950m0-41.328q-5.166 0-9.882-2.47-5.166-2.247-8.985-6.29-4.043-3.818-6.513-8.984-2.247-4.942-2.247-9.883v-92.09q0-5.166 2.247-10.107 2.246-4.942 6.513-8.985 3.819-3.818 8.985-6.064 4.941-2.246 9.882-2.47 5.166 0 10.108 2.47 4.941 2.246 8.984 6.064 3.819 4.043 6.065 8.985 2.246 5.166 2.47 10.107v92.09q0 5.166-2.47 9.883-2.246 5.166-6.065 8.984-4.043 4.043-8.984 6.29-4.942 2.47-10.108 2.47" aria-label="100" font-family="PoliceSNCF" font-size="230" text-anchor="middle"/></svg>