<svg xmlns="http://www.w3.org/2000/svg" viewBox="0 0 1050 545"><g paint-order="markers fill stroke" transform="translate(311.483 -229.957)"><rect width="300" height="300" x="-312.5" y="475" rx="50" ry="50"/><circle cx="-161.483" cy="618.285" r="45" fill="#333" class="O"/></g><g transform="translate(311.483 -229.957)"><rect width="675" height="520" x="45" y="240" rx="160" ry="160" transform="matrix(1.03713 0 0 1.0482 -8.913 -20.685)"/><rect width="670" height="515" x="52.5" y="245" fill="none" stroke="#fff" stroke-width="25" rx="155" ry="152.5"/><g fill="#333" transform="matrix(1.03713 0 0 1.0482 -8.913 -20.685)"><circle cx="566.401" cy="606.415" r="77.5" class="A"/><circle cx="200.005" cy="606.415" r="77.5" class="VL"/><ellipse cx="383.203" cy="499.088" rx="87.5" ry="85" class="XF"/><path d="m341.58 430.711-27.27 26.983 40.907 40.475-40.907 40.477 27.272 26.982 40.908-40.475 40.907 40.475 27.273-26.983-40.91-40.474 40.91-40.478-27.274-26.98-40.906 40.474Z" class="X"/><circle cx="566.401" cy="391.761" r="77.5" class="S C"/><circle cx="200.005" cy="391.761" r="77.5" class="C"/></g></g></svg>
