<svg xmlns="http://www.w3.org/2000/svg" viewBox="0 0 500 500"><path d="M0 500h500V0H0z"/><g fill="#fff"><path d="m86.987 141.24 4.727 19.121H82.69zm9.453 38.994L101.382 200h18.69L96.978 90H77.103L54.009 200H73.88l4.297-19.766z" aria-label="A"/><path d="M202.47 122.87q0-6.016-2.793-11.924-2.793-5.8-7.412-10.742-4.834-4.727-10.85-7.412-5.908-2.793-11.924-2.793h-33.086v110h19.873v-44.043h13.213q2.47 0 4.834 1.181 2.363 1.075 4.297 2.9 1.826 1.934 2.9 4.298 1.074 2.47 1.074 4.834v30.83h19.873v-30.83q0-5.694-1.289-9.99-1.396-4.297-3.33-6.983-1.933-2.793-3.545-4.082-1.611-1.181-2.793-2.04l.215-.216q1.29-1.289 2.9-3.007 1.504-1.72 3.438-4.834 1.719-3.008 3.115-6.875 1.29-3.868 1.29-8.272m-32.979 13.32h-13.213v-26.426h13.213q2.47 0 4.834 1.182 2.363 1.074 4.297 2.9 1.826 1.934 2.9 4.297 1.074 2.47 1.074 4.834 0 2.47-1.074 4.726-1.074 2.471-2.9 4.297-1.934 1.934-4.297 3.116-2.363 1.074-4.834 1.074m117.089-13.32q0-6.016-2.793-11.924-2.793-5.8-7.412-10.742-4.834-4.727-10.85-7.412-5.908-2.793-11.924-2.793h-33.086v110h19.873v-44.043H253.6q2.47 0 4.834 1.181 2.363 1.075 4.297 2.9 1.826 1.934 2.9 4.298 1.074 2.47 1.074 4.834v30.83h19.873v-30.83q0-5.694-1.289-9.99-1.396-4.297-3.33-6.983-1.933-2.793-3.545-4.082-1.611-1.181-2.793-2.04l.215-.216q1.29-1.289 2.9-3.007 1.504-1.72 3.438-4.834 1.719-3.008 3.115-6.875 1.29-3.868 1.29-8.272zm-32.979 13.32h-13.213v-26.426h13.213q2.47 0 4.834 1.182 2.363 1.074 4.297 2.9 1.826 1.934 2.9 4.297 1.074 2.47 1.074 4.834 0 2.47-1.074 4.726-1.074 2.471-2.9 4.297-1.934 1.934-4.297 3.116-2.363 1.074-4.834 1.074" aria-label="R"/><path d="M324.5 134.79v-25.029h46.191V89.995h-66.064v110h66.064v-19.766H324.5v-25.674h19.766v-19.766z" aria-label="E"/><path d="M422.9 109.77h23.096V90.004h-65.957v19.766h23.096v90.234h19.766z" aria-label="T"/><path d="M161.85 269.39v-16.816h8.408q1.572 0 3.076.752 1.504.684 2.735 1.846 1.162 1.23 1.845 2.734.684 1.572.684 3.076 0 1.573-.684 3.008-.683 1.572-1.845 2.734-1.23 1.231-2.735 1.983-1.572.683-3.076.683zm0 12.578h8.408q3.828 0 7.588-1.709 3.76-1.777 6.904-4.854 3.008-3.007 4.717-6.767 1.778-3.76 1.778-7.656 0-3.828-1.778-7.588-1.777-3.76-4.717-6.905-3.076-3.007-6.904-4.716-3.76-1.778-7.588-1.778h-21.055v70h12.646z" aria-label="P"/><path d="M241.28 289.01v-28.027q0-3.828-1.777-7.588-1.778-3.76-4.717-6.904-3.076-3.008-6.904-4.717-3.76-1.777-7.588-1.777t-7.657 1.777q-3.76 1.777-6.767 4.717-3.076 3.076-4.854 6.904-1.777 3.76-1.709 7.588v28.027q0 3.828 1.71 7.588 1.777 3.76 4.853 6.836 3.008 3.076 6.767 4.785 3.76 1.777 7.657 1.777 3.828 0 7.588-1.777t6.904-4.785q3.008-3.008 4.717-6.836 1.777-3.76 1.777-7.588m-12.578 0q0 1.572-.752 3.008-.684 1.572-1.846 2.734-1.23 1.23-2.734 1.914-1.572.684-3.076.752-1.573 0-3.008-.752-1.572-.683-2.734-1.914-1.23-1.162-1.983-2.734-.683-1.504-.683-3.008v-28.027q0-1.572.683-3.076.684-1.504 1.983-2.735 1.162-1.162 2.734-1.845 1.504-.684 3.008-.752 1.572 0 3.076.752 1.504.683 2.734 1.845 1.162 1.23 1.846 2.735.684 1.572.752 3.076z" aria-label="O"/><path d="M294.81 240h-12.646v49.014q0 1.572-.684 3.008-.683 1.572-1.845 2.734-1.23 1.23-2.735 1.914-1.572.684-3.076.752-1.572 0-3.008-.752-1.572-.683-2.734-1.914-1.23-1.162-1.983-2.734-.683-1.504-.683-3.008V240H252.77v49.014q0 3.828 1.777 7.588 1.778 3.76 4.854 6.836 3.008 3.076 6.767 4.785 3.76 1.777 7.657 1.777 3.828 0 7.588-1.777t6.904-4.785q3.008-3.008 4.717-6.836 1.777-3.76 1.777-7.588z" aria-label="U"/><path d="M350.8 260.92q0-3.828-1.777-7.588-1.778-3.691-4.717-6.836-3.076-3.008-6.904-4.717-3.76-1.777-7.588-1.777h-21.055v70h12.646v-28.027h8.408q1.572 0 3.076.752 1.504.684 2.734 1.846 1.163 1.23 1.846 2.734.684 1.572.684 3.076v19.62h12.646v-19.62q0-3.623-.82-6.357-.89-2.734-2.12-4.443-1.23-1.778-2.256-2.598-1.025-.752-1.777-1.299l.137-.137q.82-.82 1.845-1.914.957-1.094 2.188-3.076 1.094-1.914 1.982-4.375.82-2.46.82-5.264zm-20.986 8.477h-8.408V252.58h8.408q1.572 0 3.076.752 1.504.683 2.735 1.845 1.162 1.23 1.845 2.735.684 1.572.684 3.076 0 1.572-.684 3.008-.683 1.572-1.845 2.734-1.23 1.23-2.735 1.982-1.504.684-3.076.684z" aria-label="R"/><path d="M69.497 362.58q1.572 0 3.076.752 1.504.684 2.735 1.846 1.162 1.23 1.845 2.734.684 1.572.684 3.076v28.027q0 1.573-.684 3.008-.683 1.572-1.845 2.734-1.23 1.231-2.735 1.915-1.572.683-3.076.752h-8.408V362.58zm0-12.578H48.442v70h21.055q3.828 0 7.588-1.777 3.76-1.778 6.904-4.786 3.008-3.007 4.717-6.835 1.777-3.76 1.777-7.588v-28.027q0-3.828-1.777-7.588t-4.717-6.904q-3.076-3.008-6.904-4.717-3.76-1.778-7.588-1.778" aria-label="D"/><path d="M114.61 378.51v-15.928h29.395v-12.578h-42.041v70h42.041v-12.578H114.61v-16.338h12.578V378.51z" aria-label="E"/><path d="M193.36 370.3q0-3.828-1.64-7.588-1.71-3.623-4.512-6.562-2.94-2.871-6.631-4.512t-7.52-1.64-7.52 1.64q-3.69 1.709-6.562 4.512-2.87 2.94-4.58 6.562-1.709 3.692-1.64 7.588 0 3.828 1.64 7.52 1.71 3.69 4.58 6.562 2.871 2.871 6.563 4.512 3.623 1.709 7.52 1.709 1.572 0 3.076.683 1.503.684 2.734 1.914 1.162 1.23 1.846 2.735.683 1.572.752 3.076 0 1.572-.752 3.008-.684 1.572-1.846 2.734-1.23 1.23-2.734 1.914-1.573.684-3.077.752-1.572 0-3.007-.752-1.573-.683-2.735-1.914-1.23-1.162-1.982-2.734-.684-1.504-.684-3.008h-12.578q0 3.828 1.71 7.588 1.776 3.76 4.853 6.836 3.007 3.076 6.767 4.785 3.76 1.777 7.656 1.777 3.829 0 7.588-1.777t6.905-4.785q3.007-3.008 4.716-6.836 1.778-3.76 1.778-7.588t-1.778-7.656q-1.777-3.76-4.716-6.836-3.077-3.008-6.905-4.785-3.76-1.778-7.588-1.71-3.144 0-5.4-2.324-2.324-2.255-2.324-5.4 0-3.144 2.324-5.469 2.256-2.256 5.4-2.256t5.47 2.256q2.255 2.324 2.187 5.47zm51.07 0q0-3.828-1.64-7.588-1.71-3.623-4.512-6.562-2.94-2.871-6.631-4.512t-7.52-1.64-7.52 1.64q-3.69 1.709-6.562 4.512-2.87 2.94-4.58 6.562-1.709 3.692-1.64 7.588 0 3.828 1.64 7.52 1.71 3.69 4.58 6.562 2.871 2.871 6.563 4.512 3.623 1.709 7.52 1.709 1.572 0 3.076.683 1.503.684 2.734 1.914 1.162 1.23 1.846 2.735.683 1.572.752 3.076 0 1.572-.752 3.008-.684 1.572-1.846 2.734-1.23 1.23-2.734 1.914-1.573.684-3.077.752-1.572 0-3.007-.752-1.573-.683-2.735-1.914-1.23-1.162-1.982-2.734-.684-1.504-.684-3.008h-12.578q0 3.828 1.71 7.588 1.776 3.76 4.853 6.836 3.007 3.076 6.767 4.785 3.76 1.777 7.656 1.777 3.828 0 7.588-1.777t6.905-4.785q3.007-3.008 4.716-6.836 1.778-3.76 1.778-7.588t-1.778-7.656q-1.777-3.76-4.716-6.836-3.077-3.008-6.905-4.785-3.76-1.778-7.588-1.71-3.144 0-5.4-2.324-2.324-2.255-2.324-5.4 0-3.144 2.324-5.469 2.256-2.256 5.4-2.256t5.47 2.256q2.255 2.324 2.187 5.47z" aria-label="S"/><path d="M269.24 378.51v-15.928h29.395v-12.578h-42.041v70h42.041v-12.578H269.24v-16.338h12.578V378.51z" aria-label="E"/><path d="M351.14 370.92q0-3.828-1.777-7.588-1.778-3.691-4.717-6.836-3.076-3.008-6.905-4.717-3.76-1.777-7.587-1.777h-21.055v70h12.646v-28.027h8.408q1.572 0 3.076.752 1.504.684 2.734 1.846 1.163 1.23 1.846 2.734.684 1.572.684 3.076v19.62h12.646v-19.62q0-3.623-.82-6.357-.89-2.734-2.12-4.443-1.23-1.778-2.256-2.598-1.025-.752-1.777-1.299l.137-.137q.82-.82 1.845-1.914.958-1.094 2.188-3.076 1.094-1.914 1.982-4.375.82-2.46.82-5.264zm-20.986 8.477h-8.408V362.58h8.408q1.572 0 3.076.752 1.504.683 2.735 1.845 1.162 1.23 1.845 2.735.684 1.572.684 3.076 0 1.572-.684 3.008-.683 1.572-1.845 2.734-1.23 1.23-2.735 1.982-1.504.684-3.076.684z" aria-label="R"/><path d="M385.39 362.58h14.697v-12.578h-41.973v12.578h14.697v57.422h12.578z" aria-label="T"/><path d="M422.16 378.51v-15.928h29.395v-12.578h-42.041v70h42.041v-12.578H422.16v-16.338h12.578V378.51z" aria-label="E"/></g><path fill="none" stroke="#fff" stroke-width="20.059" d="M14.03 14.03h471.94v471.94H14.03z"/></svg>